# xmcd CD database file
#
# Track frame offsets:
#	150
#	17863
#	43044
#	63254
#	85671
#	101122
#	120739
#	139009
#	156221
#	176095
#	202631
#	222064
#	238147
#	256519
#	282187
#	302645
#	321718
#	336006
#
# Disc length: 4665 seconds
#
# Revision: 0
# Processed by: cddbd v1.5.2PL0 Copyright (c) Steve Scherf et al.
# Submitted via: CDex 1.50beta10
#
DISCID=fb123712
DTITLE=Billie Holiday - The Complete Masters CD12
DYEAR=1955
DGENRE=Jazz
TTITLE0=I Don't Want to Cry Anymore
TTITLE1=Prelude to a Kiss
TTITLE2=I Don't Stand a Ghost of a Chance With You
TTITLE3=When Your Lover Has Gone
TTITLE4=Gone With The Wind
TTITLE5=Please Don't Talk About Me When I'm Gone
TTITLE6=It Had To Be You
TTITLE7=Nice Work If You Can Get It
TTITLE8=Come Rain or Come Shine
TTITLE9=I Gotta Right To Sing The Blues
TTITLE10=What's New?
TTITLE11=A Fine Romance
TTITLE12=I Hadn't Anyone Till You
TTITLE13=I Get a Kick Out Of You
TTITLE14=Everything I Have is Yours
TTITLE15=Isn't This a Lovely Day?
TTITLE16=Trav'lin' Light
TTITLE17=I Must Have That Man
EXTD=YEAR: 1955
EXTT0=
EXTT1=
EXTT2=
EXTT3=
EXTT4=
EXTT5=
EXTT6=
EXTT7=
EXTT8=
EXTT9=
EXTT10=
EXTT11=
EXTT12=
EXTT13=
EXTT14=
EXTT15=
EXTT16=
EXTT17=
PLAYORDER=
